<svg width="139" height="31" viewBox="0 0 139 31" fill="none" xmlns="http://www.w3.org/2000/svg">
<g filter="url(#filter0_d)">
<path d="M15.44 15.67C14.7667 16.21 14.0533 16.5967 13.3 16.83C12.5533 17.0567 11.7467 17.17 10.88 17.17C9.84667 17.17 8.92 16.9633 8.1 16.55C7.28 16.13 6.58333 15.5633 6.01 14.85C5.43667 14.1367 4.99667 13.3033 4.69 12.35C4.39 11.3967 4.24 10.3833 4.24 9.31C4.24 8.30333 4.37667 7.34667 4.65 6.44C4.92333 5.53333 5.34 4.74 5.9 4.06C6.46667 3.37333 7.18 2.83 8.04 2.43C8.9 2.03 9.91667 1.83 11.09 1.83C11.95 1.83 12.77 1.98 13.55 2.28C14.3367 2.57333 15.0233 3 15.61 3.56L14.13 5.3C13.91 5.15333 13.68 5.01333 13.44 4.88C13.2 4.74667 12.9533 4.63 12.7 4.53C12.4533 4.43 12.2067 4.35 11.96 4.29C11.7133 4.23 11.4767 4.2 11.25 4.2C10.6167 4.2 10.0767 4.33667 9.63 4.61C9.19 4.87667 8.83 5.24333 8.55 5.71C8.27 6.17 8.06333 6.71 7.93 7.33C7.80333 7.94333 7.74 8.59333 7.74 9.28C7.74 9.68667 7.76667 10.1067 7.82 10.54C7.88 10.9667 7.96667 11.3867 8.08 11.8C8.2 12.2067 8.35 12.59 8.53 12.95C8.71667 13.31 8.93333 13.6267 9.18 13.9C9.43333 14.1733 9.72 14.39 10.04 14.55C10.36 14.71 10.72 14.79 11.12 14.79C11.3467 14.79 11.57 14.7733 11.79 14.74C12.01 14.7 12.24 14.64 12.48 14.56C12.7267 14.4733 12.9933 14.3633 13.28 14.23C13.5667 14.09 13.89 13.92 14.25 13.72L15.44 15.67ZM22.0322 17.17C21.2322 17.17 20.5022 17.0267 19.8422 16.74C19.1822 16.4467 18.6122 16.0467 18.1322 15.54C17.6589 15.0267 17.2889 14.4233 17.0222 13.73C16.7622 13.0367 16.6322 12.2833 16.6322 11.47C16.6322 10.6633 16.7589 9.91667 17.0122 9.23C17.2655 8.53667 17.6255 7.94 18.0922 7.44C18.5655 6.93333 19.1322 6.54 19.7922 6.26C20.4589 5.97333 21.2055 5.83 22.0322 5.83C22.8322 5.83 23.5622 5.97333 24.2222 6.26C24.8889 6.54 25.4589 6.93333 25.9322 7.44C26.4122 7.94 26.7822 8.53667 27.0422 9.23C27.3089 9.91667 27.4422 10.6633 27.4422 11.47C27.4422 12.2833 27.3155 13.0367 27.0622 13.73C26.8089 14.4233 26.4455 15.0267 25.9722 15.54C25.5055 16.0467 24.9389 16.4467 24.2722 16.74C23.6055 17.0267 22.8589 17.17 22.0322 17.17ZM24.1822 11.72C24.1822 11.2667 24.1422 10.82 24.0622 10.38C23.9822 9.94 23.8522 9.54667 23.6722 9.2C23.4989 8.84667 23.2722 8.56333 22.9922 8.35C22.7189 8.13667 22.3855 8.03 21.9922 8.03C21.6255 8.03 21.3089 8.12333 21.0422 8.31C20.7755 8.49 20.5555 8.73333 20.3822 9.04C20.2155 9.34667 20.0922 9.69667 20.0122 10.09C19.9322 10.4767 19.8922 10.8767 19.8922 11.29C19.8922 11.75 19.9322 12.2 20.0122 12.64C20.0922 13.08 20.2189 13.4733 20.3922 13.82C20.5722 14.16 20.7989 14.4367 21.0722 14.65C21.3455 14.8633 21.6755 14.97 22.0622 14.97C22.4289 14.97 22.7455 14.88 23.0122 14.7C23.2789 14.5133 23.4989 14.2667 23.6722 13.96C23.8455 13.6533 23.9722 13.3067 24.0522 12.92C24.1389 12.5333 24.1822 12.1333 24.1822 11.72ZM35.3244 8H34.6344C34.1944 8 33.811 8.10333 33.4844 8.31C33.1577 8.51667 32.8877 8.79667 32.6744 9.15C32.4677 9.50333 32.311 9.91333 32.2044 10.38C32.1044 10.8467 32.0544 11.3367 32.0544 11.85C32.0544 12.3433 32.0944 12.7833 32.1744 13.17C32.2544 13.5567 32.3644 13.8867 32.5044 14.16C32.6444 14.4333 32.811 14.6433 33.0044 14.79C33.2044 14.93 33.421 15 33.6544 15C33.8944 15 34.1044 14.9667 34.2844 14.9C34.4644 14.8267 34.621 14.7367 34.7544 14.63C34.8877 14.5167 35.001 14.39 35.0944 14.25C35.1877 14.11 35.2644 13.9733 35.3244 13.84V8ZM35.3244 17V15.38L34.0744 17.1C34.021 17.1133 33.971 17.1233 33.9244 17.13C33.8777 17.1367 33.821 17.1433 33.7544 17.15C33.6944 17.1567 33.6177 17.16 33.5244 17.16C33.4377 17.1667 33.3244 17.17 33.1844 17.17C32.571 17.17 31.9977 17.0367 31.4644 16.77C30.931 16.4967 30.4677 16.1167 30.0744 15.63C29.681 15.1433 29.371 14.57 29.1444 13.91C28.9177 13.2433 28.8044 12.5133 28.8044 11.72C28.8044 10.9267 28.941 10.1833 29.2144 9.49C29.4877 8.79 29.8777 8.18333 30.3844 7.67C30.891 7.15 31.501 6.74333 32.2144 6.45C32.9344 6.15 33.7377 6 34.6244 6H35.3244V0.679999L38.5844 1V14.91L38.8044 17H35.3244ZM44.3966 17H41.2366V6.51L44.3966 6.19V17ZM41.1766 2H44.4566V4.31H41.1766V2ZM50.5327 5.74V7.63L51.4327 6.12C51.646 6.04667 51.8627 5.98 52.0827 5.92C52.3093 5.86 52.5393 5.83 52.7727 5.83C53.0593 5.83 53.336 5.84 53.6027 5.86C53.876 5.87333 54.136 5.91333 54.3827 5.98C54.6293 6.04 54.8627 6.13333 55.0827 6.26C55.3027 6.38 55.5093 6.54667 55.7027 6.76C55.9093 6.98667 56.0693 7.23333 56.1827 7.5C56.296 7.76667 56.376 8.03333 56.4227 8.3C56.476 8.56 56.506 8.81667 56.5127 9.07C56.526 9.31667 56.5327 9.53667 56.5327 9.73V17H53.2727V9.43C53.2727 9.15667 53.246 8.93 53.1927 8.75C53.146 8.56333 53.0793 8.41667 52.9927 8.31C52.906 8.19667 52.7993 8.11667 52.6727 8.07C52.5527 8.02333 52.4193 8 52.2727 8C52.1593 8 52.0293 8.02 51.8827 8.06C51.7427 8.1 51.596 8.15667 51.4427 8.23C51.2893 8.29667 51.1327 8.38333 50.9727 8.49C50.8193 8.59667 50.6727 8.71333 50.5327 8.84V17H47.2727V6.07L50.5327 5.74ZM65.2348 16.84C65.0215 16.9333 64.7515 17.01 64.4248 17.07C64.1048 17.1367 63.7515 17.17 63.3648 17.17C62.6915 17.17 62.0648 17.0233 61.4848 16.73C60.9048 16.43 60.4015 16.0267 59.9748 15.52C59.5482 15.0067 59.2115 14.41 58.9648 13.73C58.7248 13.0433 58.6048 12.3167 58.6048 11.55C58.6048 10.77 58.7148 10.0333 58.9348 9.34C59.1548 8.64667 59.4815 8.04 59.9148 7.52C60.3482 7 60.8882 6.59 61.5348 6.29C62.1815 5.98333 62.9348 5.83 63.7948 5.83C63.9148 5.83 64.0148 5.83333 64.0948 5.84C64.1748 5.84 64.2482 5.84667 64.3148 5.86L65.2248 7.42V5.74L68.4848 6.07V17.41C68.4848 18.07 68.3615 18.6867 68.1148 19.26C67.8748 19.84 67.5282 20.3433 67.0748 20.77C66.6215 21.2033 66.0682 21.5433 65.4148 21.79C64.7615 22.0433 64.0215 22.17 63.1948 22.17C62.7548 22.17 62.3582 22.1333 62.0048 22.06C61.6582 21.9933 61.3348 21.8933 61.0348 21.76C60.7348 21.6267 60.4515 21.46 60.1848 21.26C59.9248 21.0667 59.6648 20.8433 59.4048 20.59L60.8448 18.92C60.9515 19.0133 61.0915 19.1167 61.2648 19.23C61.4382 19.3433 61.6282 19.4533 61.8348 19.56C62.0482 19.6667 62.2715 19.7533 62.5048 19.82C62.7448 19.8933 62.9782 19.93 63.2048 19.93C63.4848 19.93 63.7482 19.86 63.9948 19.72C64.2415 19.5867 64.4548 19.4 64.6348 19.16C64.8215 18.92 64.9682 18.6367 65.0748 18.31C65.1815 17.99 65.2348 17.6433 65.2348 17.27V16.84ZM65.2248 8.8C65.0382 8.58667 64.8182 8.4 64.5648 8.24C64.3182 8.08 64.0448 8 63.7448 8C63.3448 8 63.0215 8.12 62.7748 8.36C62.5348 8.6 62.3448 8.90333 62.2048 9.27C62.0715 9.63 61.9815 10.0233 61.9348 10.45C61.8948 10.8767 61.8748 11.28 61.8748 11.66C61.8748 12.1333 61.9148 12.5733 61.9948 12.98C62.0748 13.3867 62.1848 13.74 62.3248 14.04C62.4715 14.34 62.6448 14.5767 62.8448 14.75C63.0448 14.9167 63.2682 15 63.5148 15C63.9082 15 64.2382 14.9167 64.5048 14.75C64.7715 14.5833 65.0115 14.3767 65.2248 14.13V8.8ZM70.017 17L73.997 4.16L74.347 2.06L78.127 1.75L82.917 17H79.497L78.337 12.73H74.417L73.287 17H70.017ZM76.377 3.39L75.847 7.1L75.007 10.54H77.747L76.897 7.1L76.377 3.39ZM84.2548 3.21L84.0448 1L87.5248 0.69V12.97C87.5248 13.2567 87.5348 13.52 87.5548 13.76C87.5748 14 87.6148 14.2067 87.6748 14.38C87.7415 14.5467 87.8348 14.6767 87.9548 14.77C88.0748 14.8633 88.2348 14.91 88.4348 14.91C88.5282 14.91 88.6215 14.9033 88.7148 14.89C88.8148 14.87 88.9082 14.8467 88.9948 14.82C89.0882 14.7933 89.1715 14.77 89.2448 14.75C89.3182 14.7233 89.3782 14.7 89.4248 14.68L89.9848 16.65C89.9115 16.69 89.8082 16.74 89.6748 16.8C89.5415 16.8533 89.3848 16.91 89.2048 16.97C89.0248 17.0233 88.8215 17.07 88.5948 17.11C88.3748 17.15 88.1415 17.17 87.8948 17.17C87.1548 17.17 86.5482 17.0633 86.0748 16.85C85.6015 16.63 85.2282 16.33 84.9548 15.95C84.6882 15.5633 84.5048 15.11 84.4048 14.59C84.3048 14.0633 84.2548 13.4967 84.2548 12.89V3.21ZM94.717 15H95.497C95.9437 15 96.3437 14.9033 96.697 14.71C97.0504 14.51 97.3504 14.24 97.597 13.9C97.8437 13.56 98.0304 13.1633 98.157 12.71C98.2904 12.25 98.357 11.76 98.357 11.24C98.357 10.7 98.3004 10.2267 98.187 9.82C98.0804 9.41333 97.9404 9.07667 97.767 8.81C97.6004 8.53667 97.4104 8.33333 97.197 8.2C96.9904 8.06667 96.787 8 96.587 8C96.407 8 96.227 8.02667 96.047 8.08C95.8737 8.13333 95.707 8.20333 95.547 8.29C95.387 8.37 95.237 8.46333 95.097 8.57C94.957 8.67667 94.8304 8.78333 94.717 8.89V15ZM91.457 22V6.07L94.717 5.74V7.56L95.957 5.9C96.097 5.88 96.2404 5.86333 96.387 5.85C96.5404 5.83667 96.697 5.83 96.857 5.83C97.477 5.83 98.057 5.96 98.597 6.22C99.1437 6.48 99.617 6.85333 100.017 7.34C100.424 7.82 100.744 8.4 100.977 9.08C101.217 9.76 101.337 10.52 101.337 11.36C101.337 12.18 101.194 12.9367 100.907 13.63C100.627 14.3167 100.224 14.91 99.697 15.41C99.177 15.91 98.547 16.3 97.807 16.58C97.067 16.86 96.2404 17 95.327 17H94.717V22H91.457ZM106.409 17H103.149V3.21L102.929 1L106.409 0.69V7.48L107.609 5.93C107.789 5.89667 107.969 5.87333 108.149 5.86C108.336 5.84 108.513 5.83 108.679 5.83C109.266 5.83 109.789 5.92 110.249 6.1C110.716 6.27333 111.109 6.53 111.429 6.87C111.749 7.20333 111.993 7.62 112.159 8.12C112.326 8.61333 112.409 9.18 112.409 9.82V17H109.149V9.74C109.149 9.39333 109.119 9.10667 109.059 8.88C109.006 8.65333 108.933 8.47667 108.839 8.35C108.746 8.21667 108.639 8.12667 108.519 8.08C108.399 8.02667 108.276 8 108.149 8C108.003 8 107.849 8.02 107.689 8.06C107.536 8.1 107.379 8.15667 107.219 8.23C107.066 8.29667 106.919 8.38333 106.779 8.49C106.639 8.59 106.516 8.7 106.409 8.82V17ZM123.671 17H120.281V15.38L119.081 17.12C119.028 17.1333 118.965 17.1433 118.891 17.15C118.818 17.1633 118.711 17.17 118.571 17.17C117.998 17.17 117.455 17.09 116.941 16.93C116.428 16.7633 115.978 16.5233 115.591 16.21C115.205 15.89 114.895 15.4967 114.661 15.03C114.435 14.5633 114.321 14.0267 114.321 13.42C114.321 12.9933 114.385 12.6067 114.511 12.26C114.638 11.9133 114.811 11.6033 115.031 11.33C115.258 11.0567 115.518 10.82 115.811 10.62C116.105 10.42 116.418 10.2567 116.751 10.13C117.091 9.99667 117.438 9.9 117.791 9.84C118.151 9.77333 118.501 9.74 118.841 9.74C119.141 9.74 119.408 9.75 119.641 9.77C119.881 9.79 120.091 9.81667 120.271 9.85C120.265 9.58333 120.245 9.34 120.211 9.12C120.178 8.89333 120.118 8.69667 120.031 8.53C119.945 8.36333 119.828 8.23333 119.681 8.14C119.535 8.04667 119.348 8 119.121 8C118.555 8 118.011 8.06667 117.491 8.2C116.971 8.32667 116.501 8.46667 116.081 8.62L115.041 6.77C115.561 6.53667 116.071 6.35 116.571 6.21C116.891 6.11667 117.268 6.03 117.701 5.95C118.141 5.87 118.645 5.83 119.211 5.83C120.078 5.83 120.785 5.93667 121.331 6.15C121.885 6.35667 122.315 6.65333 122.621 7.04C122.935 7.42 123.148 7.88 123.261 8.42C123.381 8.95333 123.441 9.54333 123.441 10.19V14.95L123.671 17ZM120.281 11.85C120.121 11.83 119.945 11.8133 119.751 11.8C119.565 11.78 119.385 11.77 119.211 11.77C118.971 11.77 118.735 11.8033 118.501 11.87C118.275 11.9367 118.071 12.0367 117.891 12.17C117.711 12.3033 117.565 12.4733 117.451 12.68C117.338 12.8867 117.281 13.13 117.281 13.41C117.281 13.6367 117.318 13.8467 117.391 14.04C117.465 14.2333 117.561 14.4033 117.681 14.55C117.801 14.69 117.935 14.8 118.081 14.88C118.235 14.96 118.388 15 118.541 15C118.735 15 118.918 14.97 119.091 14.91C119.271 14.85 119.435 14.7767 119.581 14.69C119.735 14.5967 119.868 14.4967 119.981 14.39C120.101 14.2833 120.201 14.1867 120.281 14.1V11.85ZM132.345 8.78C132.139 8.65333 131.922 8.54333 131.695 8.45C131.475 8.35 131.259 8.26667 131.045 8.2C130.839 8.13333 130.645 8.08333 130.465 8.05C130.285 8.01667 130.142 8 130.035 8C129.255 8 128.865 8.26 128.865 8.78C128.865 8.95333 128.939 9.10667 129.085 9.24C129.232 9.37333 129.425 9.5 129.665 9.62C129.905 9.74 130.179 9.86 130.485 9.98C130.799 10.1 131.115 10.2333 131.435 10.38C131.755 10.5267 132.069 10.69 132.375 10.87C132.689 11.0433 132.965 11.25 133.205 11.49C133.445 11.7233 133.639 11.9933 133.785 12.3C133.932 12.6067 134.005 12.96 134.005 13.36C134.005 14.0533 133.885 14.64 133.645 15.12C133.405 15.6 133.075 15.9933 132.655 16.3C132.235 16.6067 131.739 16.83 131.165 16.97C130.599 17.1033 129.989 17.17 129.335 17.17C129.082 17.17 128.785 17.14 128.445 17.08C128.105 17.02 127.759 16.94 127.405 16.84C127.059 16.74 126.722 16.6233 126.395 16.49C126.069 16.35 125.792 16.2 125.565 16.04L126.565 14.14C126.805 14.26 127.055 14.3733 127.315 14.48C127.582 14.5867 127.842 14.68 128.095 14.76C128.349 14.8333 128.592 14.8933 128.825 14.94C129.059 14.98 129.265 15 129.445 15C129.632 15 129.812 14.9733 129.985 14.92C130.165 14.8667 130.322 14.7867 130.455 14.68C130.589 14.5667 130.695 14.4267 130.775 14.26C130.855 14.0867 130.895 13.88 130.895 13.64C130.895 13.4 130.822 13.1933 130.675 13.02C130.535 12.84 130.345 12.6767 130.105 12.53C129.872 12.3833 129.602 12.2467 129.295 12.12C128.995 11.9933 128.685 11.86 128.365 11.72C128.052 11.5733 127.742 11.4167 127.435 11.25C127.135 11.0833 126.865 10.89 126.625 10.67C126.392 10.4433 126.202 10.1867 126.055 9.9C125.915 9.60667 125.845 9.26333 125.845 8.87C125.845 8.33 125.945 7.86667 126.145 7.48C126.352 7.09333 126.639 6.78 127.005 6.54C127.379 6.29333 127.825 6.11333 128.345 6C128.865 5.88667 129.439 5.83 130.065 5.83C130.359 5.83 130.652 5.86 130.945 5.92C131.245 5.97333 131.535 6.04667 131.815 6.14C132.095 6.22667 132.355 6.32667 132.595 6.44C132.842 6.55333 133.055 6.67 133.235 6.79L132.345 8.78Z" fill="black"/>
<path d="M15.44 15.67C14.7667 16.21 14.0533 16.5967 13.3 16.83C12.5533 17.0567 11.7467 17.17 10.88 17.17C9.84667 17.17 8.92 16.9633 8.1 16.55C7.28 16.13 6.58333 15.5633 6.01 14.85C5.43667 14.1367 4.99667 13.3033 4.69 12.35C4.39 11.3967 4.24 10.3833 4.24 9.31C4.24 8.30333 4.37667 7.34667 4.65 6.44C4.92333 5.53333 5.34 4.74 5.9 4.06C6.46667 3.37333 7.18 2.83 8.04 2.43C8.9 2.03 9.91667 1.83 11.09 1.83C11.95 1.83 12.77 1.98 13.55 2.28C14.3367 2.57333 15.0233 3 15.61 3.56L14.13 5.3C13.91 5.15333 13.68 5.01333 13.44 4.88C13.2 4.74667 12.9533 4.63 12.7 4.53C12.4533 4.43 12.2067 4.35 11.96 4.29C11.7133 4.23 11.4767 4.2 11.25 4.2C10.6167 4.2 10.0767 4.33667 9.63 4.61C9.19 4.87667 8.83 5.24333 8.55 5.71C8.27 6.17 8.06333 6.71 7.93 7.33C7.80333 7.94333 7.74 8.59333 7.74 9.28C7.74 9.68667 7.76667 10.1067 7.82 10.54C7.88 10.9667 7.96667 11.3867 8.08 11.8C8.2 12.2067 8.35 12.59 8.53 12.95C8.71667 13.31 8.93333 13.6267 9.18 13.9C9.43333 14.1733 9.72 14.39 10.04 14.55C10.36 14.71 10.72 14.79 11.12 14.79C11.3467 14.79 11.57 14.7733 11.79 14.74C12.01 14.7 12.24 14.64 12.48 14.56C12.7267 14.4733 12.9933 14.3633 13.28 14.23C13.5667 14.09 13.89 13.92 14.25 13.72L15.44 15.67ZM22.0322 17.17C21.2322 17.17 20.5022 17.0267 19.8422 16.74C19.1822 16.4467 18.6122 16.0467 18.1322 15.54C17.6589 15.0267 17.2889 14.4233 17.0222 13.73C16.7622 13.0367 16.6322 12.2833 16.6322 11.47C16.6322 10.6633 16.7589 9.91667 17.0122 9.23C17.2655 8.53667 17.6255 7.94 18.0922 7.44C18.5655 6.93333 19.1322 6.54 19.7922 6.26C20.4589 5.97333 21.2055 5.83 22.0322 5.83C22.8322 5.83 23.5622 5.97333 24.2222 6.26C24.8889 6.54 25.4589 6.93333 25.9322 7.44C26.4122 7.94 26.7822 8.53667 27.0422 9.23C27.3089 9.91667 27.4422 10.6633 27.4422 11.47C27.4422 12.2833 27.3155 13.0367 27.0622 13.73C26.8089 14.4233 26.4455 15.0267 25.9722 15.54C25.5055 16.0467 24.9389 16.4467 24.2722 16.74C23.6055 17.0267 22.8589 17.17 22.0322 17.17ZM24.1822 11.72C24.1822 11.2667 24.1422 10.82 24.0622 10.38C23.9822 9.94 23.8522 9.54667 23.6722 9.2C23.4989 8.84667 23.2722 8.56333 22.9922 8.35C22.7189 8.13667 22.3855 8.03 21.9922 8.03C21.6255 8.03 21.3089 8.12333 21.0422 8.31C20.7755 8.49 20.5555 8.73333 20.3822 9.04C20.2155 9.34667 20.0922 9.69667 20.0122 10.09C19.9322 10.4767 19.8922 10.8767 19.8922 11.29C19.8922 11.75 19.9322 12.2 20.0122 12.64C20.0922 13.08 20.2189 13.4733 20.3922 13.82C20.5722 14.16 20.7989 14.4367 21.0722 14.65C21.3455 14.8633 21.6755 14.97 22.0622 14.97C22.4289 14.97 22.7455 14.88 23.0122 14.7C23.2789 14.5133 23.4989 14.2667 23.6722 13.96C23.8455 13.6533 23.9722 13.3067 24.0522 12.92C24.1389 12.5333 24.1822 12.1333 24.1822 11.72ZM35.3244 8H34.6344C34.1944 8 33.811 8.10333 33.4844 8.31C33.1577 8.51667 32.8877 8.79667 32.6744 9.15C32.4677 9.50333 32.311 9.91333 32.2044 10.38C32.1044 10.8467 32.0544 11.3367 32.0544 11.85C32.0544 12.3433 32.0944 12.7833 32.1744 13.17C32.2544 13.5567 32.3644 13.8867 32.5044 14.16C32.6444 14.4333 32.811 14.6433 33.0044 14.79C33.2044 14.93 33.421 15 33.6544 15C33.8944 15 34.1044 14.9667 34.2844 14.9C34.4644 14.8267 34.621 14.7367 34.7544 14.63C34.8877 14.5167 35.001 14.39 35.0944 14.25C35.1877 14.11 35.2644 13.9733 35.3244 13.84V8ZM35.3244 17V15.38L34.0744 17.1C34.021 17.1133 33.971 17.1233 33.9244 17.13C33.8777 17.1367 33.821 17.1433 33.7544 17.15C33.6944 17.1567 33.6177 17.16 33.5244 17.16C33.4377 17.1667 33.3244 17.17 33.1844 17.17C32.571 17.17 31.9977 17.0367 31.4644 16.77C30.931 16.4967 30.4677 16.1167 30.0744 15.63C29.681 15.1433 29.371 14.57 29.1444 13.91C28.9177 13.2433 28.8044 12.5133 28.8044 11.72C28.8044 10.9267 28.941 10.1833 29.2144 9.49C29.4877 8.79 29.8777 8.18333 30.3844 7.67C30.891 7.15 31.501 6.74333 32.2144 6.45C32.9344 6.15 33.7377 6 34.6244 6H35.3244V0.679999L38.5844 1V14.91L38.8044 17H35.3244ZM44.3966 17H41.2366V6.51L44.3966 6.19V17ZM41.1766 2H44.4566V4.31H41.1766V2ZM50.5327 5.74V7.63L51.4327 6.12C51.646 6.04667 51.8627 5.98 52.0827 5.92C52.3093 5.86 52.5393 5.83 52.7727 5.83C53.0593 5.83 53.336 5.84 53.6027 5.86C53.876 5.87333 54.136 5.91333 54.3827 5.98C54.6293 6.04 54.8627 6.13333 55.0827 6.26C55.3027 6.38 55.5093 6.54667 55.7027 6.76C55.9093 6.98667 56.0693 7.23333 56.1827 7.5C56.296 7.76667 56.376 8.03333 56.4227 8.3C56.476 8.56 56.506 8.81667 56.5127 9.07C56.526 9.31667 56.5327 9.53667 56.5327 9.73V17H53.2727V9.43C53.2727 9.15667 53.246 8.93 53.1927 8.75C53.146 8.56333 53.0793 8.41667 52.9927 8.31C52.906 8.19667 52.7993 8.11667 52.6727 8.07C52.5527 8.02333 52.4193 8 52.2727 8C52.1593 8 52.0293 8.02 51.8827 8.06C51.7427 8.1 51.596 8.15667 51.4427 8.23C51.2893 8.29667 51.1327 8.38333 50.9727 8.49C50.8193 8.59667 50.6727 8.71333 50.5327 8.84V17H47.2727V6.07L50.5327 5.74ZM65.2348 16.84C65.0215 16.9333 64.7515 17.01 64.4248 17.07C64.1048 17.1367 63.7515 17.17 63.3648 17.17C62.6915 17.17 62.0648 17.0233 61.4848 16.73C60.9048 16.43 60.4015 16.0267 59.9748 15.52C59.5482 15.0067 59.2115 14.41 58.9648 13.73C58.7248 13.0433 58.6048 12.3167 58.6048 11.55C58.6048 10.77 58.7148 10.0333 58.9348 9.34C59.1548 8.64667 59.4815 8.04 59.9148 7.52C60.3482 7 60.8882 6.59 61.5348 6.29C62.1815 5.98333 62.9348 5.83 63.7948 5.83C63.9148 5.83 64.0148 5.83333 64.0948 5.84C64.1748 5.84 64.2482 5.84667 64.3148 5.86L65.2248 7.42V5.74L68.4848 6.07V17.41C68.4848 18.07 68.3615 18.6867 68.1148 19.26C67.8748 19.84 67.5282 20.3433 67.0748 20.77C66.6215 21.2033 66.0682 21.5433 65.4148 21.79C64.7615 22.0433 64.0215 22.17 63.1948 22.17C62.7548 22.17 62.3582 22.1333 62.0048 22.06C61.6582 21.9933 61.3348 21.8933 61.0348 21.76C60.7348 21.6267 60.4515 21.46 60.1848 21.26C59.9248 21.0667 59.6648 20.8433 59.4048 20.59L60.8448 18.92C60.9515 19.0133 61.0915 19.1167 61.2648 19.23C61.4382 19.3433 61.6282 19.4533 61.8348 19.56C62.0482 19.6667 62.2715 19.7533 62.5048 19.82C62.7448 19.8933 62.9782 19.93 63.2048 19.93C63.4848 19.93 63.7482 19.86 63.9948 19.72C64.2415 19.5867 64.4548 19.4 64.6348 19.16C64.8215 18.92 64.9682 18.6367 65.0748 18.31C65.1815 17.99 65.2348 17.6433 65.2348 17.27V16.84ZM65.2248 8.8C65.0382 8.58667 64.8182 8.4 64.5648 8.24C64.3182 8.08 64.0448 8 63.7448 8C63.3448 8 63.0215 8.12 62.7748 8.36C62.5348 8.6 62.3448 8.90333 62.2048 9.27C62.0715 9.63 61.9815 10.0233 61.9348 10.45C61.8948 10.8767 61.8748 11.28 61.8748 11.66C61.8748 12.1333 61.9148 12.5733 61.9948 12.98C62.0748 13.3867 62.1848 13.74 62.3248 14.04C62.4715 14.34 62.6448 14.5767 62.8448 14.75C63.0448 14.9167 63.2682 15 63.5148 15C63.9082 15 64.2382 14.9167 64.5048 14.75C64.7715 14.5833 65.0115 14.3767 65.2248 14.13V8.8ZM70.017 17L73.997 4.16L74.347 2.06L78.127 1.75L82.917 17H79.497L78.337 12.73H74.417L73.287 17H70.017ZM76.377 3.39L75.847 7.1L75.007 10.54H77.747L76.897 7.1L76.377 3.39ZM84.2548 3.21L84.0448 1L87.5248 0.69V12.97C87.5248 13.2567 87.5348 13.52 87.5548 13.76C87.5748 14 87.6148 14.2067 87.6748 14.38C87.7415 14.5467 87.8348 14.6767 87.9548 14.77C88.0748 14.8633 88.2348 14.91 88.4348 14.91C88.5282 14.91 88.6215 14.9033 88.7148 14.89C88.8148 14.87 88.9082 14.8467 88.9948 14.82C89.0882 14.7933 89.1715 14.77 89.2448 14.75C89.3182 14.7233 89.3782 14.7 89.4248 14.68L89.9848 16.65C89.9115 16.69 89.8082 16.74 89.6748 16.8C89.5415 16.8533 89.3848 16.91 89.2048 16.97C89.0248 17.0233 88.8215 17.07 88.5948 17.11C88.3748 17.15 88.1415 17.17 87.8948 17.17C87.1548 17.17 86.5482 17.0633 86.0748 16.85C85.6015 16.63 85.2282 16.33 84.9548 15.95C84.6882 15.5633 84.5048 15.11 84.4048 14.59C84.3048 14.0633 84.2548 13.4967 84.2548 12.89V3.21ZM94.717 15H95.497C95.9437 15 96.3437 14.9033 96.697 14.71C97.0504 14.51 97.3504 14.24 97.597 13.9C97.8437 13.56 98.0304 13.1633 98.157 12.71C98.2904 12.25 98.357 11.76 98.357 11.24C98.357 10.7 98.3004 10.2267 98.187 9.82C98.0804 9.41333 97.9404 9.07667 97.767 8.81C97.6004 8.53667 97.4104 8.33333 97.197 8.2C96.9904 8.06667 96.787 8 96.587 8C96.407 8 96.227 8.02667 96.047 8.08C95.8737 8.13333 95.707 8.20333 95.547 8.29C95.387 8.37 95.237 8.46333 95.097 8.57C94.957 8.67667 94.8304 8.78333 94.717 8.89V15ZM91.457 22V6.07L94.717 5.74V7.56L95.957 5.9C96.097 5.88 96.2404 5.86333 96.387 5.85C96.5404 5.83667 96.697 5.83 96.857 5.83C97.477 5.83 98.057 5.96 98.597 6.22C99.1437 6.48 99.617 6.85333 100.017 7.34C100.424 7.82 100.744 8.4 100.977 9.08C101.217 9.76 101.337 10.52 101.337 11.36C101.337 12.18 101.194 12.9367 100.907 13.63C100.627 14.3167 100.224 14.91 99.697 15.41C99.177 15.91 98.547 16.3 97.807 16.58C97.067 16.86 96.2404 17 95.327 17H94.717V22H91.457ZM106.409 17H103.149V3.21L102.929 1L106.409 0.69V7.48L107.609 5.93C107.789 5.89667 107.969 5.87333 108.149 5.86C108.336 5.84 108.513 5.83 108.679 5.83C109.266 5.83 109.789 5.92 110.249 6.1C110.716 6.27333 111.109 6.53 111.429 6.87C111.749 7.20333 111.993 7.62 112.159 8.12C112.326 8.61333 112.409 9.18 112.409 9.82V17H109.149V9.74C109.149 9.39333 109.119 9.10667 109.059 8.88C109.006 8.65333 108.933 8.47667 108.839 8.35C108.746 8.21667 108.639 8.12667 108.519 8.08C108.399 8.02667 108.276 8 108.149 8C108.003 8 107.849 8.02 107.689 8.06C107.536 8.1 107.379 8.15667 107.219 8.23C107.066 8.29667 106.919 8.38333 106.779 8.49C106.639 8.59 106.516 8.7 106.409 8.82V17ZM123.671 17H120.281V15.38L119.081 17.12C119.028 17.1333 118.965 17.1433 118.891 17.15C118.818 17.1633 118.711 17.17 118.571 17.17C117.998 17.17 117.455 17.09 116.941 16.93C116.428 16.7633 115.978 16.5233 115.591 16.21C115.205 15.89 114.895 15.4967 114.661 15.03C114.435 14.5633 114.321 14.0267 114.321 13.42C114.321 12.9933 114.385 12.6067 114.511 12.26C114.638 11.9133 114.811 11.6033 115.031 11.33C115.258 11.0567 115.518 10.82 115.811 10.62C116.105 10.42 116.418 10.2567 116.751 10.13C117.091 9.99667 117.438 9.9 117.791 9.84C118.151 9.77333 118.501 9.74 118.841 9.74C119.141 9.74 119.408 9.75 119.641 9.77C119.881 9.79 120.091 9.81667 120.271 9.85C120.265 9.58333 120.245 9.34 120.211 9.12C120.178 8.89333 120.118 8.69667 120.031 8.53C119.945 8.36333 119.828 8.23333 119.681 8.14C119.535 8.04667 119.348 8 119.121 8C118.555 8 118.011 8.06667 117.491 8.2C116.971 8.32667 116.501 8.46667 116.081 8.62L115.041 6.77C115.561 6.53667 116.071 6.35 116.571 6.21C116.891 6.11667 117.268 6.03 117.701 5.95C118.141 5.87 118.645 5.83 119.211 5.83C120.078 5.83 120.785 5.93667 121.331 6.15C121.885 6.35667 122.315 6.65333 122.621 7.04C122.935 7.42 123.148 7.88 123.261 8.42C123.381 8.95333 123.441 9.54333 123.441 10.19V14.95L123.671 17ZM120.281 11.85C120.121 11.83 119.945 11.8133 119.751 11.8C119.565 11.78 119.385 11.77 119.211 11.77C118.971 11.77 118.735 11.8033 118.501 11.87C118.275 11.9367 118.071 12.0367 117.891 12.17C117.711 12.3033 117.565 12.4733 117.451 12.68C117.338 12.8867 117.281 13.13 117.281 13.41C117.281 13.6367 117.318 13.8467 117.391 14.04C117.465 14.2333 117.561 14.4033 117.681 14.55C117.801 14.69 117.935 14.8 118.081 14.88C118.235 14.96 118.388 15 118.541 15C118.735 15 118.918 14.97 119.091 14.91C119.271 14.85 119.435 14.7767 119.581 14.69C119.735 14.5967 119.868 14.4967 119.981 14.39C120.101 14.2833 120.201 14.1867 120.281 14.1V11.85ZM132.345 8.78C132.139 8.65333 131.922 8.54333 131.695 8.45C131.475 8.35 131.259 8.26667 131.045 8.2C130.839 8.13333 130.645 8.08333 130.465 8.05C130.285 8.01667 130.142 8 130.035 8C129.255 8 128.865 8.26 128.865 8.78C128.865 8.95333 128.939 9.10667 129.085 9.24C129.232 9.37333 129.425 9.5 129.665 9.62C129.905 9.74 130.179 9.86 130.485 9.98C130.799 10.1 131.115 10.2333 131.435 10.38C131.755 10.5267 132.069 10.69 132.375 10.87C132.689 11.0433 132.965 11.25 133.205 11.49C133.445 11.7233 133.639 11.9933 133.785 12.3C133.932 12.6067 134.005 12.96 134.005 13.36C134.005 14.0533 133.885 14.64 133.645 15.12C133.405 15.6 133.075 15.9933 132.655 16.3C132.235 16.6067 131.739 16.83 131.165 16.97C130.599 17.1033 129.989 17.17 129.335 17.17C129.082 17.17 128.785 17.14 128.445 17.08C128.105 17.02 127.759 16.94 127.405 16.84C127.059 16.74 126.722 16.6233 126.395 16.49C126.069 16.35 125.792 16.2 125.565 16.04L126.565 14.14C126.805 14.26 127.055 14.3733 127.315 14.48C127.582 14.5867 127.842 14.68 128.095 14.76C128.349 14.8333 128.592 14.8933 128.825 14.94C129.059 14.98 129.265 15 129.445 15C129.632 15 129.812 14.9733 129.985 14.92C130.165 14.8667 130.322 14.7867 130.455 14.68C130.589 14.5667 130.695 14.4267 130.775 14.26C130.855 14.0867 130.895 13.88 130.895 13.64C130.895 13.4 130.822 13.1933 130.675 13.02C130.535 12.84 130.345 12.6767 130.105 12.53C129.872 12.3833 129.602 12.2467 129.295 12.12C128.995 11.9933 128.685 11.86 128.365 11.72C128.052 11.5733 127.742 11.4167 127.435 11.25C127.135 11.0833 126.865 10.89 126.625 10.67C126.392 10.4433 126.202 10.1867 126.055 9.9C125.915 9.60667 125.845 9.26333 125.845 8.87C125.845 8.33 125.945 7.86667 126.145 7.48C126.352 7.09333 126.639 6.78 127.005 6.54C127.379 6.29333 127.825 6.11333 128.345 6C128.865 5.88667 129.439 5.83 130.065 5.83C130.359 5.83 130.652 5.86 130.945 5.92C131.245 5.97333 131.535 6.04667 131.815 6.14C132.095 6.22667 132.355 6.32667 132.595 6.44C132.842 6.55333 133.055 6.67 133.235 6.79L132.345 8.78Z" fill="url(#paint0_linear)"/>
</g>
<defs>
<filter id="filter0_d" x="0.23999" y="0.679993" width="137.765" height="29.49" filterUnits="userSpaceOnUse" color-interpolation-filters="sRGB">
<feFlood flood-opacity="0" result="BackgroundImageFix"/>
<feColorMatrix in="SourceAlpha" type="matrix" values="0 0 0 0 0 0 0 0 0 0 0 0 0 0 0 0 0 0 127 0"/>
<feOffset dy="4"/>
<feGaussianBlur stdDeviation="2"/>
<feColorMatrix type="matrix" values="0 0 0 0 0 0 0 0 0 0 0 0 0 0 0 0 0 0 0.25 0"/>
<feBlend mode="normal" in2="BackgroundImageFix" result="effect1_dropShadow"/>
<feBlend mode="normal" in="SourceGraphic" in2="effect1_dropShadow" result="shape"/>
</filter>
<linearGradient id="paint0_linear" x1="77" y1="-2" x2="77" y2="26" gradientUnits="userSpaceOnUse">
<stop stop-color="#C92C60"/>
<stop offset="1" stop-color="white" stop-opacity="0"/>
</linearGradient>
</defs>
</svg>
