<svg width="20" height="20" viewBox="0 0 20 20" fill="none" xmlns="http://www.w3.org/2000/svg">
<path d="M5.75 11C5.74 10.65 5.9 10.31 6.17 10.08C6.92 10.24 7.62 10.55 8.25 11C8.25 11.68 7.69 12.24 7 12.24C6.31 12.24 5.76 11.69 5.75 11ZM11.75 11C12.38 10.56 13.08 10.25 13.83 10.09C14.1 10.32 14.26 10.66 14.25 11C14.25 11.7 13.69 12.26 13 12.26C12.31 12.26 11.75 11.7 11.75 11ZM10 7C7.23 6.96 4.5 7.65 2.07 9L2 10C2 11.23 2.29 12.44 2.84 13.54C7.58607 12.8185 12.4139 12.8185 17.16 13.54C17.71 12.44 18 11.23 18 10L17.93 9C15.5072 7.65107 12.7728 6.96144 10 7ZM10 0C11.3132 0 12.6136 0.258658 13.8268 0.761205C15.0401 1.26375 16.1425 2.00035 17.0711 2.92893C17.9997 3.85752 18.7362 4.95991 19.2388 6.17317C19.7413 7.38642 20 8.68678 20 10C20 12.6522 18.9464 15.1957 17.0711 17.0711C15.1957 18.9464 12.6522 20 10 20C8.68678 20 7.38642 19.7413 6.17317 19.2388C4.95991 18.7362 3.85752 17.9997 2.92893 17.0711C1.05357 15.1957 0 12.6522 0 10C0 7.34784 1.05357 4.8043 2.92893 2.92893C4.8043 1.05357 7.34784 0 10 0Z" fill="#C92C60"/>
<path d="M5.75 11C5.74 10.65 5.9 10.31 6.17 10.08C6.92 10.24 7.62 10.55 8.25 11C8.25 11.68 7.69 12.24 7 12.24C6.31 12.24 5.76 11.69 5.75 11ZM11.75 11C12.38 10.56 13.08 10.25 13.83 10.09C14.1 10.32 14.26 10.66 14.25 11C14.25 11.7 13.69 12.26 13 12.26C12.31 12.26 11.75 11.7 11.75 11ZM10 7C7.23 6.96 4.5 7.65 2.07 9L2 10C2 11.23 2.29 12.44 2.84 13.54C7.58607 12.8185 12.4139 12.8185 17.16 13.54C17.71 12.44 18 11.23 18 10L17.93 9C15.5072 7.65107 12.7728 6.96144 10 7ZM10 0C11.3132 0 12.6136 0.258658 13.8268 0.761205C15.0401 1.26375 16.1425 2.00035 17.0711 2.92893C17.9997 3.85752 18.7362 4.95991 19.2388 6.17317C19.7413 7.38642 20 8.68678 20 10C20 12.6522 18.9464 15.1957 17.0711 17.0711C15.1957 18.9464 12.6522 20 10 20C8.68678 20 7.38642 19.7413 6.17317 19.2388C4.95991 18.7362 3.85752 17.9997 2.92893 17.0711C1.05357 15.1957 0 12.6522 0 10C0 7.34784 1.05357 4.8043 2.92893 2.92893C4.8043 1.05357 7.34784 0 10 0Z" fill="url(#paint0_linear)"/>
<defs>
<linearGradient id="paint0_linear" x1="10" y1="0" x2="10" y2="20" gradientUnits="userSpaceOnUse">
<stop/>
<stop offset="1" stop-color="white" stop-opacity="0"/>
</linearGradient>
</defs>
</svg>
