<svg width="250" height="100" viewBox="0 0 250 100" fill="none" xmlns="http://www.w3.org/2000/svg">
<rect width="250" height="100" fill="white"/>
<g filter="url(#filter0_d)">
<path d="M87.44 55.67C86.7667 56.21 86.0533 56.5967 85.3 56.83C84.5533 57.0567 83.7467 57.17 82.88 57.17C81.8467 57.17 80.92 56.9633 80.1 56.55C79.28 56.13 78.5833 55.5633 78.01 54.85C77.4367 54.1367 76.9967 53.3033 76.69 52.35C76.39 51.3967 76.24 50.3833 76.24 49.31C76.24 48.3033 76.3767 47.3467 76.65 46.44C76.9233 45.5333 77.34 44.74 77.9 44.06C78.4667 43.3733 79.18 42.83 80.04 42.43C80.9 42.03 81.9167 41.83 83.09 41.83C83.95 41.83 84.77 41.98 85.55 42.28C86.3367 42.5733 87.0233 43 87.61 43.56L86.13 45.3C85.91 45.1533 85.68 45.0133 85.44 44.88C85.2 44.7467 84.9533 44.63 84.7 44.53C84.4533 44.43 84.2067 44.35 83.96 44.29C83.7133 44.23 83.4767 44.2 83.25 44.2C82.6167 44.2 82.0767 44.3367 81.63 44.61C81.19 44.8767 80.83 45.2433 80.55 45.71C80.27 46.17 80.0633 46.71 79.93 47.33C79.8033 47.9433 79.74 48.5933 79.74 49.28C79.74 49.6867 79.7667 50.1067 79.82 50.54C79.88 50.9667 79.9667 51.3867 80.08 51.8C80.2 52.2067 80.35 52.59 80.53 52.95C80.7167 53.31 80.9333 53.6267 81.18 53.9C81.4333 54.1733 81.72 54.39 82.04 54.55C82.36 54.71 82.72 54.79 83.12 54.79C83.3467 54.79 83.57 54.7733 83.79 54.74C84.01 54.7 84.24 54.64 84.48 54.56C84.7267 54.4733 84.9933 54.3633 85.28 54.23C85.5667 54.09 85.89 53.92 86.25 53.72L87.44 55.67ZM94.0322 57.17C93.2322 57.17 92.5022 57.0267 91.8422 56.74C91.1822 56.4467 90.6122 56.0467 90.1322 55.54C89.6589 55.0267 89.2889 54.4233 89.0222 53.73C88.7622 53.0367 88.6322 52.2833 88.6322 51.47C88.6322 50.6633 88.7589 49.9167 89.0122 49.23C89.2655 48.5367 89.6255 47.94 90.0922 47.44C90.5655 46.9333 91.1322 46.54 91.7922 46.26C92.4589 45.9733 93.2055 45.83 94.0322 45.83C94.8322 45.83 95.5622 45.9733 96.2222 46.26C96.8889 46.54 97.4589 46.9333 97.9322 47.44C98.4122 47.94 98.7822 48.5367 99.0422 49.23C99.3089 49.9167 99.4422 50.6633 99.4422 51.47C99.4422 52.2833 99.3155 53.0367 99.0622 53.73C98.8089 54.4233 98.4455 55.0267 97.9722 55.54C97.5055 56.0467 96.9389 56.4467 96.2722 56.74C95.6055 57.0267 94.8589 57.17 94.0322 57.17ZM96.1822 51.72C96.1822 51.2667 96.1422 50.82 96.0622 50.38C95.9822 49.94 95.8522 49.5467 95.6722 49.2C95.4989 48.8467 95.2722 48.5633 94.9922 48.35C94.7189 48.1367 94.3855 48.03 93.9922 48.03C93.6255 48.03 93.3089 48.1233 93.0422 48.31C92.7755 48.49 92.5555 48.7333 92.3822 49.04C92.2155 49.3467 92.0922 49.6967 92.0122 50.09C91.9322 50.4767 91.8922 50.8767 91.8922 51.29C91.8922 51.75 91.9322 52.2 92.0122 52.64C92.0922 53.08 92.2189 53.4733 92.3922 53.82C92.5722 54.16 92.7989 54.4367 93.0722 54.65C93.3455 54.8633 93.6755 54.97 94.0622 54.97C94.4289 54.97 94.7455 54.88 95.0122 54.7C95.2789 54.5133 95.4989 54.2667 95.6722 53.96C95.8455 53.6533 95.9722 53.3067 96.0522 52.92C96.1389 52.5333 96.1822 52.1333 96.1822 51.72ZM107.324 48H106.634C106.194 48 105.811 48.1033 105.484 48.31C105.158 48.5167 104.888 48.7967 104.674 49.15C104.468 49.5033 104.311 49.9133 104.204 50.38C104.104 50.8467 104.054 51.3367 104.054 51.85C104.054 52.3433 104.094 52.7833 104.174 53.17C104.254 53.5567 104.364 53.8867 104.504 54.16C104.644 54.4333 104.811 54.6433 105.004 54.79C105.204 54.93 105.421 55 105.654 55C105.894 55 106.104 54.9667 106.284 54.9C106.464 54.8267 106.621 54.7367 106.754 54.63C106.888 54.5167 107.001 54.39 107.094 54.25C107.188 54.11 107.264 53.9733 107.324 53.84V48ZM107.324 57V55.38L106.074 57.1C106.021 57.1133 105.971 57.1233 105.924 57.13C105.878 57.1367 105.821 57.1433 105.754 57.15C105.694 57.1567 105.618 57.16 105.524 57.16C105.438 57.1667 105.324 57.17 105.184 57.17C104.571 57.17 103.998 57.0367 103.464 56.77C102.931 56.4967 102.468 56.1167 102.074 55.63C101.681 55.1433 101.371 54.57 101.144 53.91C100.918 53.2433 100.804 52.5133 100.804 51.72C100.804 50.9267 100.941 50.1833 101.214 49.49C101.488 48.79 101.878 48.1833 102.384 47.67C102.891 47.15 103.501 46.7433 104.214 46.45C104.934 46.15 105.738 46 106.624 46H107.324V40.68L110.584 41V54.91L110.804 57H107.324ZM116.397 57H113.237V46.51L116.397 46.19V57ZM113.177 42H116.457V44.31H113.177V42ZM122.533 45.74V47.63L123.433 46.12C123.646 46.0467 123.863 45.98 124.083 45.92C124.309 45.86 124.539 45.83 124.773 45.83C125.059 45.83 125.336 45.84 125.603 45.86C125.876 45.8733 126.136 45.9133 126.383 45.98C126.629 46.04 126.863 46.1333 127.083 46.26C127.303 46.38 127.509 46.5467 127.703 46.76C127.909 46.9867 128.069 47.2333 128.183 47.5C128.296 47.7667 128.376 48.0333 128.423 48.3C128.476 48.56 128.506 48.8167 128.513 49.07C128.526 49.3167 128.533 49.5367 128.533 49.73V57H125.273V49.43C125.273 49.1567 125.246 48.93 125.193 48.75C125.146 48.5633 125.079 48.4167 124.993 48.31C124.906 48.1967 124.799 48.1167 124.673 48.07C124.553 48.0233 124.419 48 124.273 48C124.159 48 124.029 48.02 123.883 48.06C123.743 48.1 123.596 48.1567 123.443 48.23C123.289 48.2967 123.133 48.3833 122.973 48.49C122.819 48.5967 122.673 48.7133 122.533 48.84V57H119.273V46.07L122.533 45.74ZM137.235 56.84C137.022 56.9333 136.752 57.01 136.425 57.07C136.105 57.1367 135.752 57.17 135.365 57.17C134.692 57.17 134.065 57.0233 133.485 56.73C132.905 56.43 132.402 56.0267 131.975 55.52C131.548 55.0067 131.212 54.41 130.965 53.73C130.725 53.0433 130.605 52.3167 130.605 51.55C130.605 50.77 130.715 50.0333 130.935 49.34C131.155 48.6467 131.482 48.04 131.915 47.52C132.348 47 132.888 46.59 133.535 46.29C134.182 45.9833 134.935 45.83 135.795 45.83C135.915 45.83 136.015 45.8333 136.095 45.84C136.175 45.84 136.248 45.8467 136.315 45.86L137.225 47.42V45.74L140.485 46.07V57.41C140.485 58.07 140.362 58.6867 140.115 59.26C139.875 59.84 139.528 60.3433 139.075 60.77C138.622 61.2033 138.068 61.5433 137.415 61.79C136.762 62.0433 136.022 62.17 135.195 62.17C134.755 62.17 134.358 62.1333 134.005 62.06C133.658 61.9933 133.335 61.8933 133.035 61.76C132.735 61.6267 132.452 61.46 132.185 61.26C131.925 61.0667 131.665 60.8433 131.405 60.59L132.845 58.92C132.952 59.0133 133.092 59.1167 133.265 59.23C133.438 59.3433 133.628 59.4533 133.835 59.56C134.048 59.6667 134.272 59.7533 134.505 59.82C134.745 59.8933 134.978 59.93 135.205 59.93C135.485 59.93 135.748 59.86 135.995 59.72C136.242 59.5867 136.455 59.4 136.635 59.16C136.822 58.92 136.968 58.6367 137.075 58.31C137.182 57.99 137.235 57.6433 137.235 57.27V56.84ZM137.225 48.8C137.038 48.5867 136.818 48.4 136.565 48.24C136.318 48.08 136.045 48 135.745 48C135.345 48 135.022 48.12 134.775 48.36C134.535 48.6 134.345 48.9033 134.205 49.27C134.072 49.63 133.982 50.0233 133.935 50.45C133.895 50.8767 133.875 51.28 133.875 51.66C133.875 52.1333 133.915 52.5733 133.995 52.98C134.075 53.3867 134.185 53.74 134.325 54.04C134.472 54.34 134.645 54.5767 134.845 54.75C135.045 54.9167 135.268 55 135.515 55C135.908 55 136.238 54.9167 136.505 54.75C136.772 54.5833 137.012 54.3767 137.225 54.13V48.8ZM142.017 57L145.997 44.16L146.347 42.06L150.127 41.75L154.917 57H151.497L150.337 52.73H146.417L145.287 57H142.017ZM148.377 43.39L147.847 47.1L147.007 50.54H149.747L148.897 47.1L148.377 43.39ZM156.255 43.21L156.045 41L159.525 40.69V52.97C159.525 53.2567 159.535 53.52 159.555 53.76C159.575 54 159.615 54.2067 159.675 54.38C159.742 54.5467 159.835 54.6767 159.955 54.77C160.075 54.8633 160.235 54.91 160.435 54.91C160.528 54.91 160.622 54.9033 160.715 54.89C160.815 54.87 160.908 54.8467 160.995 54.82C161.088 54.7933 161.172 54.77 161.245 54.75C161.318 54.7233 161.378 54.7 161.425 54.68L161.985 56.65C161.912 56.69 161.808 56.74 161.675 56.8C161.542 56.8533 161.385 56.91 161.205 56.97C161.025 57.0233 160.822 57.07 160.595 57.11C160.375 57.15 160.142 57.17 159.895 57.17C159.155 57.17 158.548 57.0633 158.075 56.85C157.602 56.63 157.228 56.33 156.955 55.95C156.688 55.5633 156.505 55.11 156.405 54.59C156.305 54.0633 156.255 53.4967 156.255 52.89V43.21ZM166.717 55H167.497C167.944 55 168.344 54.9033 168.697 54.71C169.05 54.51 169.35 54.24 169.597 53.9C169.844 53.56 170.03 53.1633 170.157 52.71C170.29 52.25 170.357 51.76 170.357 51.24C170.357 50.7 170.3 50.2267 170.187 49.82C170.08 49.4133 169.94 49.0767 169.767 48.81C169.6 48.5367 169.41 48.3333 169.197 48.2C168.99 48.0667 168.787 48 168.587 48C168.407 48 168.227 48.0267 168.047 48.08C167.874 48.1333 167.707 48.2033 167.547 48.29C167.387 48.37 167.237 48.4633 167.097 48.57C166.957 48.6767 166.83 48.7833 166.717 48.89V55ZM163.457 62V46.07L166.717 45.74V47.56L167.957 45.9C168.097 45.88 168.24 45.8633 168.387 45.85C168.54 45.8367 168.697 45.83 168.857 45.83C169.477 45.83 170.057 45.96 170.597 46.22C171.144 46.48 171.617 46.8533 172.017 47.34C172.424 47.82 172.744 48.4 172.977 49.08C173.217 49.76 173.337 50.52 173.337 51.36C173.337 52.18 173.194 52.9367 172.907 53.63C172.627 54.3167 172.224 54.91 171.697 55.41C171.177 55.91 170.547 56.3 169.807 56.58C169.067 56.86 168.24 57 167.327 57H166.717V62H163.457ZM178.409 57H175.149V43.21L174.929 41L178.409 40.69V47.48L179.609 45.93C179.789 45.8967 179.969 45.8733 180.149 45.86C180.336 45.84 180.513 45.83 180.679 45.83C181.266 45.83 181.789 45.92 182.249 46.1C182.716 46.2733 183.109 46.53 183.429 46.87C183.749 47.2033 183.993 47.62 184.159 48.12C184.326 48.6133 184.409 49.18 184.409 49.82V57H181.149V49.74C181.149 49.3933 181.119 49.1067 181.059 48.88C181.006 48.6533 180.933 48.4767 180.839 48.35C180.746 48.2167 180.639 48.1267 180.519 48.08C180.399 48.0267 180.276 48 180.149 48C180.003 48 179.849 48.02 179.689 48.06C179.536 48.1 179.379 48.1567 179.219 48.23C179.066 48.2967 178.919 48.3833 178.779 48.49C178.639 48.59 178.516 48.7 178.409 48.82V57ZM195.671 57H192.281V55.38L191.081 57.12C191.028 57.1333 190.965 57.1433 190.891 57.15C190.818 57.1633 190.711 57.17 190.571 57.17C189.998 57.17 189.455 57.09 188.941 56.93C188.428 56.7633 187.978 56.5233 187.591 56.21C187.205 55.89 186.895 55.4967 186.661 55.03C186.435 54.5633 186.321 54.0267 186.321 53.42C186.321 52.9933 186.385 52.6067 186.511 52.26C186.638 51.9133 186.811 51.6033 187.031 51.33C187.258 51.0567 187.518 50.82 187.811 50.62C188.105 50.42 188.418 50.2567 188.751 50.13C189.091 49.9967 189.438 49.9 189.791 49.84C190.151 49.7733 190.501 49.74 190.841 49.74C191.141 49.74 191.408 49.75 191.641 49.77C191.881 49.79 192.091 49.8167 192.271 49.85C192.265 49.5833 192.245 49.34 192.211 49.12C192.178 48.8933 192.118 48.6967 192.031 48.53C191.945 48.3633 191.828 48.2333 191.681 48.14C191.535 48.0467 191.348 48 191.121 48C190.555 48 190.011 48.0667 189.491 48.2C188.971 48.3267 188.501 48.4667 188.081 48.62L187.041 46.77C187.561 46.5367 188.071 46.35 188.571 46.21C188.891 46.1167 189.268 46.03 189.701 45.95C190.141 45.87 190.645 45.83 191.211 45.83C192.078 45.83 192.785 45.9367 193.331 46.15C193.885 46.3567 194.315 46.6533 194.621 47.04C194.935 47.42 195.148 47.88 195.261 48.42C195.381 48.9533 195.441 49.5433 195.441 50.19V54.95L195.671 57ZM192.281 51.85C192.121 51.83 191.945 51.8133 191.751 51.8C191.565 51.78 191.385 51.77 191.211 51.77C190.971 51.77 190.735 51.8033 190.501 51.87C190.275 51.9367 190.071 52.0367 189.891 52.17C189.711 52.3033 189.565 52.4733 189.451 52.68C189.338 52.8867 189.281 53.13 189.281 53.41C189.281 53.6367 189.318 53.8467 189.391 54.04C189.465 54.2333 189.561 54.4033 189.681 54.55C189.801 54.69 189.935 54.8 190.081 54.88C190.235 54.96 190.388 55 190.541 55C190.735 55 190.918 54.97 191.091 54.91C191.271 54.85 191.435 54.7767 191.581 54.69C191.735 54.5967 191.868 54.4967 191.981 54.39C192.101 54.2833 192.201 54.1867 192.281 54.1V51.85ZM204.345 48.78C204.139 48.6533 203.922 48.5433 203.695 48.45C203.475 48.35 203.259 48.2667 203.045 48.2C202.839 48.1333 202.645 48.0833 202.465 48.05C202.285 48.0167 202.142 48 202.035 48C201.255 48 200.865 48.26 200.865 48.78C200.865 48.9533 200.939 49.1067 201.085 49.24C201.232 49.3733 201.425 49.5 201.665 49.62C201.905 49.74 202.179 49.86 202.485 49.98C202.799 50.1 203.115 50.2333 203.435 50.38C203.755 50.5267 204.069 50.69 204.375 50.87C204.689 51.0433 204.965 51.25 205.205 51.49C205.445 51.7233 205.639 51.9933 205.785 52.3C205.932 52.6067 206.005 52.96 206.005 53.36C206.005 54.0533 205.885 54.64 205.645 55.12C205.405 55.6 205.075 55.9933 204.655 56.3C204.235 56.6067 203.739 56.83 203.165 56.97C202.599 57.1033 201.989 57.17 201.335 57.17C201.082 57.17 200.785 57.14 200.445 57.08C200.105 57.02 199.759 56.94 199.405 56.84C199.059 56.74 198.722 56.6233 198.395 56.49C198.069 56.35 197.792 56.2 197.565 56.04L198.565 54.14C198.805 54.26 199.055 54.3733 199.315 54.48C199.582 54.5867 199.842 54.68 200.095 54.76C200.349 54.8333 200.592 54.8933 200.825 54.94C201.059 54.98 201.265 55 201.445 55C201.632 55 201.812 54.9733 201.985 54.92C202.165 54.8667 202.322 54.7867 202.455 54.68C202.589 54.5667 202.695 54.4267 202.775 54.26C202.855 54.0867 202.895 53.88 202.895 53.64C202.895 53.4 202.822 53.1933 202.675 53.02C202.535 52.84 202.345 52.6767 202.105 52.53C201.872 52.3833 201.602 52.2467 201.295 52.12C200.995 51.9933 200.685 51.86 200.365 51.72C200.052 51.5733 199.742 51.4167 199.435 51.25C199.135 51.0833 198.865 50.89 198.625 50.67C198.392 50.4433 198.202 50.1867 198.055 49.9C197.915 49.6067 197.845 49.2633 197.845 48.87C197.845 48.33 197.945 47.8667 198.145 47.48C198.352 47.0933 198.639 46.78 199.005 46.54C199.379 46.2933 199.825 46.1133 200.345 46C200.865 45.8867 201.439 45.83 202.065 45.83C202.359 45.83 202.652 45.86 202.945 45.92C203.245 45.9733 203.535 46.0467 203.815 46.14C204.095 46.2267 204.355 46.3267 204.595 46.44C204.842 46.5533 205.055 46.67 205.235 46.79L204.345 48.78Z" fill="black"/>
<path d="M87.44 55.67C86.7667 56.21 86.0533 56.5967 85.3 56.83C84.5533 57.0567 83.7467 57.17 82.88 57.17C81.8467 57.17 80.92 56.9633 80.1 56.55C79.28 56.13 78.5833 55.5633 78.01 54.85C77.4367 54.1367 76.9967 53.3033 76.69 52.35C76.39 51.3967 76.24 50.3833 76.24 49.31C76.24 48.3033 76.3767 47.3467 76.65 46.44C76.9233 45.5333 77.34 44.74 77.9 44.06C78.4667 43.3733 79.18 42.83 80.04 42.43C80.9 42.03 81.9167 41.83 83.09 41.83C83.95 41.83 84.77 41.98 85.55 42.28C86.3367 42.5733 87.0233 43 87.61 43.56L86.13 45.3C85.91 45.1533 85.68 45.0133 85.44 44.88C85.2 44.7467 84.9533 44.63 84.7 44.53C84.4533 44.43 84.2067 44.35 83.96 44.29C83.7133 44.23 83.4767 44.2 83.25 44.2C82.6167 44.2 82.0767 44.3367 81.63 44.61C81.19 44.8767 80.83 45.2433 80.55 45.71C80.27 46.17 80.0633 46.71 79.93 47.33C79.8033 47.9433 79.74 48.5933 79.74 49.28C79.74 49.6867 79.7667 50.1067 79.82 50.54C79.88 50.9667 79.9667 51.3867 80.08 51.8C80.2 52.2067 80.35 52.59 80.53 52.95C80.7167 53.31 80.9333 53.6267 81.18 53.9C81.4333 54.1733 81.72 54.39 82.04 54.55C82.36 54.71 82.72 54.79 83.12 54.79C83.3467 54.79 83.57 54.7733 83.79 54.74C84.01 54.7 84.24 54.64 84.48 54.56C84.7267 54.4733 84.9933 54.3633 85.28 54.23C85.5667 54.09 85.89 53.92 86.25 53.72L87.44 55.67ZM94.0322 57.17C93.2322 57.17 92.5022 57.0267 91.8422 56.74C91.1822 56.4467 90.6122 56.0467 90.1322 55.54C89.6589 55.0267 89.2889 54.4233 89.0222 53.73C88.7622 53.0367 88.6322 52.2833 88.6322 51.47C88.6322 50.6633 88.7589 49.9167 89.0122 49.23C89.2655 48.5367 89.6255 47.94 90.0922 47.44C90.5655 46.9333 91.1322 46.54 91.7922 46.26C92.4589 45.9733 93.2055 45.83 94.0322 45.83C94.8322 45.83 95.5622 45.9733 96.2222 46.26C96.8889 46.54 97.4589 46.9333 97.9322 47.44C98.4122 47.94 98.7822 48.5367 99.0422 49.23C99.3089 49.9167 99.4422 50.6633 99.4422 51.47C99.4422 52.2833 99.3155 53.0367 99.0622 53.73C98.8089 54.4233 98.4455 55.0267 97.9722 55.54C97.5055 56.0467 96.9389 56.4467 96.2722 56.74C95.6055 57.0267 94.8589 57.17 94.0322 57.17ZM96.1822 51.72C96.1822 51.2667 96.1422 50.82 96.0622 50.38C95.9822 49.94 95.8522 49.5467 95.6722 49.2C95.4989 48.8467 95.2722 48.5633 94.9922 48.35C94.7189 48.1367 94.3855 48.03 93.9922 48.03C93.6255 48.03 93.3089 48.1233 93.0422 48.31C92.7755 48.49 92.5555 48.7333 92.3822 49.04C92.2155 49.3467 92.0922 49.6967 92.0122 50.09C91.9322 50.4767 91.8922 50.8767 91.8922 51.29C91.8922 51.75 91.9322 52.2 92.0122 52.64C92.0922 53.08 92.2189 53.4733 92.3922 53.82C92.5722 54.16 92.7989 54.4367 93.0722 54.65C93.3455 54.8633 93.6755 54.97 94.0622 54.97C94.4289 54.97 94.7455 54.88 95.0122 54.7C95.2789 54.5133 95.4989 54.2667 95.6722 53.96C95.8455 53.6533 95.9722 53.3067 96.0522 52.92C96.1389 52.5333 96.1822 52.1333 96.1822 51.72ZM107.324 48H106.634C106.194 48 105.811 48.1033 105.484 48.31C105.158 48.5167 104.888 48.7967 104.674 49.15C104.468 49.5033 104.311 49.9133 104.204 50.38C104.104 50.8467 104.054 51.3367 104.054 51.85C104.054 52.3433 104.094 52.7833 104.174 53.17C104.254 53.5567 104.364 53.8867 104.504 54.16C104.644 54.4333 104.811 54.6433 105.004 54.79C105.204 54.93 105.421 55 105.654 55C105.894 55 106.104 54.9667 106.284 54.9C106.464 54.8267 106.621 54.7367 106.754 54.63C106.888 54.5167 107.001 54.39 107.094 54.25C107.188 54.11 107.264 53.9733 107.324 53.84V48ZM107.324 57V55.38L106.074 57.1C106.021 57.1133 105.971 57.1233 105.924 57.13C105.878 57.1367 105.821 57.1433 105.754 57.15C105.694 57.1567 105.618 57.16 105.524 57.16C105.438 57.1667 105.324 57.17 105.184 57.17C104.571 57.17 103.998 57.0367 103.464 56.77C102.931 56.4967 102.468 56.1167 102.074 55.63C101.681 55.1433 101.371 54.57 101.144 53.91C100.918 53.2433 100.804 52.5133 100.804 51.72C100.804 50.9267 100.941 50.1833 101.214 49.49C101.488 48.79 101.878 48.1833 102.384 47.67C102.891 47.15 103.501 46.7433 104.214 46.45C104.934 46.15 105.738 46 106.624 46H107.324V40.68L110.584 41V54.91L110.804 57H107.324ZM116.397 57H113.237V46.51L116.397 46.19V57ZM113.177 42H116.457V44.31H113.177V42ZM122.533 45.74V47.63L123.433 46.12C123.646 46.0467 123.863 45.98 124.083 45.92C124.309 45.86 124.539 45.83 124.773 45.83C125.059 45.83 125.336 45.84 125.603 45.86C125.876 45.8733 126.136 45.9133 126.383 45.98C126.629 46.04 126.863 46.1333 127.083 46.26C127.303 46.38 127.509 46.5467 127.703 46.76C127.909 46.9867 128.069 47.2333 128.183 47.5C128.296 47.7667 128.376 48.0333 128.423 48.3C128.476 48.56 128.506 48.8167 128.513 49.07C128.526 49.3167 128.533 49.5367 128.533 49.73V57H125.273V49.43C125.273 49.1567 125.246 48.93 125.193 48.75C125.146 48.5633 125.079 48.4167 124.993 48.31C124.906 48.1967 124.799 48.1167 124.673 48.07C124.553 48.0233 124.419 48 124.273 48C124.159 48 124.029 48.02 123.883 48.06C123.743 48.1 123.596 48.1567 123.443 48.23C123.289 48.2967 123.133 48.3833 122.973 48.49C122.819 48.5967 122.673 48.7133 122.533 48.84V57H119.273V46.07L122.533 45.74ZM137.235 56.84C137.022 56.9333 136.752 57.01 136.425 57.07C136.105 57.1367 135.752 57.17 135.365 57.17C134.692 57.17 134.065 57.0233 133.485 56.73C132.905 56.43 132.402 56.0267 131.975 55.52C131.548 55.0067 131.212 54.41 130.965 53.73C130.725 53.0433 130.605 52.3167 130.605 51.55C130.605 50.77 130.715 50.0333 130.935 49.34C131.155 48.6467 131.482 48.04 131.915 47.52C132.348 47 132.888 46.59 133.535 46.29C134.182 45.9833 134.935 45.83 135.795 45.83C135.915 45.83 136.015 45.8333 136.095 45.84C136.175 45.84 136.248 45.8467 136.315 45.86L137.225 47.42V45.74L140.485 46.07V57.41C140.485 58.07 140.362 58.6867 140.115 59.26C139.875 59.84 139.528 60.3433 139.075 60.77C138.622 61.2033 138.068 61.5433 137.415 61.79C136.762 62.0433 136.022 62.17 135.195 62.17C134.755 62.17 134.358 62.1333 134.005 62.06C133.658 61.9933 133.335 61.8933 133.035 61.76C132.735 61.6267 132.452 61.46 132.185 61.26C131.925 61.0667 131.665 60.8433 131.405 60.59L132.845 58.92C132.952 59.0133 133.092 59.1167 133.265 59.23C133.438 59.3433 133.628 59.4533 133.835 59.56C134.048 59.6667 134.272 59.7533 134.505 59.82C134.745 59.8933 134.978 59.93 135.205 59.93C135.485 59.93 135.748 59.86 135.995 59.72C136.242 59.5867 136.455 59.4 136.635 59.16C136.822 58.92 136.968 58.6367 137.075 58.31C137.182 57.99 137.235 57.6433 137.235 57.27V56.84ZM137.225 48.8C137.038 48.5867 136.818 48.4 136.565 48.24C136.318 48.08 136.045 48 135.745 48C135.345 48 135.022 48.12 134.775 48.36C134.535 48.6 134.345 48.9033 134.205 49.27C134.072 49.63 133.982 50.0233 133.935 50.45C133.895 50.8767 133.875 51.28 133.875 51.66C133.875 52.1333 133.915 52.5733 133.995 52.98C134.075 53.3867 134.185 53.74 134.325 54.04C134.472 54.34 134.645 54.5767 134.845 54.75C135.045 54.9167 135.268 55 135.515 55C135.908 55 136.238 54.9167 136.505 54.75C136.772 54.5833 137.012 54.3767 137.225 54.13V48.8ZM142.017 57L145.997 44.16L146.347 42.06L150.127 41.75L154.917 57H151.497L150.337 52.73H146.417L145.287 57H142.017ZM148.377 43.39L147.847 47.1L147.007 50.54H149.747L148.897 47.1L148.377 43.39ZM156.255 43.21L156.045 41L159.525 40.69V52.97C159.525 53.2567 159.535 53.52 159.555 53.76C159.575 54 159.615 54.2067 159.675 54.38C159.742 54.5467 159.835 54.6767 159.955 54.77C160.075 54.8633 160.235 54.91 160.435 54.91C160.528 54.91 160.622 54.9033 160.715 54.89C160.815 54.87 160.908 54.8467 160.995 54.82C161.088 54.7933 161.172 54.77 161.245 54.75C161.318 54.7233 161.378 54.7 161.425 54.68L161.985 56.65C161.912 56.69 161.808 56.74 161.675 56.8C161.542 56.8533 161.385 56.91 161.205 56.97C161.025 57.0233 160.822 57.07 160.595 57.11C160.375 57.15 160.142 57.17 159.895 57.17C159.155 57.17 158.548 57.0633 158.075 56.85C157.602 56.63 157.228 56.33 156.955 55.95C156.688 55.5633 156.505 55.11 156.405 54.59C156.305 54.0633 156.255 53.4967 156.255 52.89V43.21ZM166.717 55H167.497C167.944 55 168.344 54.9033 168.697 54.71C169.05 54.51 169.35 54.24 169.597 53.9C169.844 53.56 170.03 53.1633 170.157 52.71C170.29 52.25 170.357 51.76 170.357 51.24C170.357 50.7 170.3 50.2267 170.187 49.82C170.08 49.4133 169.94 49.0767 169.767 48.81C169.6 48.5367 169.41 48.3333 169.197 48.2C168.99 48.0667 168.787 48 168.587 48C168.407 48 168.227 48.0267 168.047 48.08C167.874 48.1333 167.707 48.2033 167.547 48.29C167.387 48.37 167.237 48.4633 167.097 48.57C166.957 48.6767 166.83 48.7833 166.717 48.89V55ZM163.457 62V46.07L166.717 45.74V47.56L167.957 45.9C168.097 45.88 168.24 45.8633 168.387 45.85C168.54 45.8367 168.697 45.83 168.857 45.83C169.477 45.83 170.057 45.96 170.597 46.22C171.144 46.48 171.617 46.8533 172.017 47.34C172.424 47.82 172.744 48.4 172.977 49.08C173.217 49.76 173.337 50.52 173.337 51.36C173.337 52.18 173.194 52.9367 172.907 53.63C172.627 54.3167 172.224 54.91 171.697 55.41C171.177 55.91 170.547 56.3 169.807 56.58C169.067 56.86 168.24 57 167.327 57H166.717V62H163.457ZM178.409 57H175.149V43.21L174.929 41L178.409 40.69V47.48L179.609 45.93C179.789 45.8967 179.969 45.8733 180.149 45.86C180.336 45.84 180.513 45.83 180.679 45.83C181.266 45.83 181.789 45.92 182.249 46.1C182.716 46.2733 183.109 46.53 183.429 46.87C183.749 47.2033 183.993 47.62 184.159 48.12C184.326 48.6133 184.409 49.18 184.409 49.82V57H181.149V49.74C181.149 49.3933 181.119 49.1067 181.059 48.88C181.006 48.6533 180.933 48.4767 180.839 48.35C180.746 48.2167 180.639 48.1267 180.519 48.08C180.399 48.0267 180.276 48 180.149 48C180.003 48 179.849 48.02 179.689 48.06C179.536 48.1 179.379 48.1567 179.219 48.23C179.066 48.2967 178.919 48.3833 178.779 48.49C178.639 48.59 178.516 48.7 178.409 48.82V57ZM195.671 57H192.281V55.38L191.081 57.12C191.028 57.1333 190.965 57.1433 190.891 57.15C190.818 57.1633 190.711 57.17 190.571 57.17C189.998 57.17 189.455 57.09 188.941 56.93C188.428 56.7633 187.978 56.5233 187.591 56.21C187.205 55.89 186.895 55.4967 186.661 55.03C186.435 54.5633 186.321 54.0267 186.321 53.42C186.321 52.9933 186.385 52.6067 186.511 52.26C186.638 51.9133 186.811 51.6033 187.031 51.33C187.258 51.0567 187.518 50.82 187.811 50.62C188.105 50.42 188.418 50.2567 188.751 50.13C189.091 49.9967 189.438 49.9 189.791 49.84C190.151 49.7733 190.501 49.74 190.841 49.74C191.141 49.74 191.408 49.75 191.641 49.77C191.881 49.79 192.091 49.8167 192.271 49.85C192.265 49.5833 192.245 49.34 192.211 49.12C192.178 48.8933 192.118 48.6967 192.031 48.53C191.945 48.3633 191.828 48.2333 191.681 48.14C191.535 48.0467 191.348 48 191.121 48C190.555 48 190.011 48.0667 189.491 48.2C188.971 48.3267 188.501 48.4667 188.081 48.62L187.041 46.77C187.561 46.5367 188.071 46.35 188.571 46.21C188.891 46.1167 189.268 46.03 189.701 45.95C190.141 45.87 190.645 45.83 191.211 45.83C192.078 45.83 192.785 45.9367 193.331 46.15C193.885 46.3567 194.315 46.6533 194.621 47.04C194.935 47.42 195.148 47.88 195.261 48.42C195.381 48.9533 195.441 49.5433 195.441 50.19V54.95L195.671 57ZM192.281 51.85C192.121 51.83 191.945 51.8133 191.751 51.8C191.565 51.78 191.385 51.77 191.211 51.77C190.971 51.77 190.735 51.8033 190.501 51.87C190.275 51.9367 190.071 52.0367 189.891 52.17C189.711 52.3033 189.565 52.4733 189.451 52.68C189.338 52.8867 189.281 53.13 189.281 53.41C189.281 53.6367 189.318 53.8467 189.391 54.04C189.465 54.2333 189.561 54.4033 189.681 54.55C189.801 54.69 189.935 54.8 190.081 54.88C190.235 54.96 190.388 55 190.541 55C190.735 55 190.918 54.97 191.091 54.91C191.271 54.85 191.435 54.7767 191.581 54.69C191.735 54.5967 191.868 54.4967 191.981 54.39C192.101 54.2833 192.201 54.1867 192.281 54.1V51.85ZM204.345 48.78C204.139 48.6533 203.922 48.5433 203.695 48.45C203.475 48.35 203.259 48.2667 203.045 48.2C202.839 48.1333 202.645 48.0833 202.465 48.05C202.285 48.0167 202.142 48 202.035 48C201.255 48 200.865 48.26 200.865 48.78C200.865 48.9533 200.939 49.1067 201.085 49.24C201.232 49.3733 201.425 49.5 201.665 49.62C201.905 49.74 202.179 49.86 202.485 49.98C202.799 50.1 203.115 50.2333 203.435 50.38C203.755 50.5267 204.069 50.69 204.375 50.87C204.689 51.0433 204.965 51.25 205.205 51.49C205.445 51.7233 205.639 51.9933 205.785 52.3C205.932 52.6067 206.005 52.96 206.005 53.36C206.005 54.0533 205.885 54.64 205.645 55.12C205.405 55.6 205.075 55.9933 204.655 56.3C204.235 56.6067 203.739 56.83 203.165 56.97C202.599 57.1033 201.989 57.17 201.335 57.17C201.082 57.17 200.785 57.14 200.445 57.08C200.105 57.02 199.759 56.94 199.405 56.84C199.059 56.74 198.722 56.6233 198.395 56.49C198.069 56.35 197.792 56.2 197.565 56.04L198.565 54.14C198.805 54.26 199.055 54.3733 199.315 54.48C199.582 54.5867 199.842 54.68 200.095 54.76C200.349 54.8333 200.592 54.8933 200.825 54.94C201.059 54.98 201.265 55 201.445 55C201.632 55 201.812 54.9733 201.985 54.92C202.165 54.8667 202.322 54.7867 202.455 54.68C202.589 54.5667 202.695 54.4267 202.775 54.26C202.855 54.0867 202.895 53.88 202.895 53.64C202.895 53.4 202.822 53.1933 202.675 53.02C202.535 52.84 202.345 52.6767 202.105 52.53C201.872 52.3833 201.602 52.2467 201.295 52.12C200.995 51.9933 200.685 51.86 200.365 51.72C200.052 51.5733 199.742 51.4167 199.435 51.25C199.135 51.0833 198.865 50.89 198.625 50.67C198.392 50.4433 198.202 50.1867 198.055 49.9C197.915 49.6067 197.845 49.2633 197.845 48.87C197.845 48.33 197.945 47.8667 198.145 47.48C198.352 47.0933 198.639 46.78 199.005 46.54C199.379 46.2933 199.825 46.1133 200.345 46C200.865 45.8867 201.439 45.83 202.065 45.83C202.359 45.83 202.652 45.86 202.945 45.92C203.245 45.9733 203.535 46.0467 203.815 46.14C204.095 46.2267 204.355 46.3267 204.595 46.44C204.842 46.5533 205.055 46.67 205.235 46.79L204.345 48.78Z" fill="url(#paint0_linear)"/>
</g>
<path d="M56.75 51C56.74 50.65 56.9 50.31 57.17 50.08C57.92 50.24 58.62 50.55 59.25 51C59.25 51.68 58.69 52.24 58 52.24C57.31 52.24 56.76 51.69 56.75 51ZM62.75 51C63.38 50.56 64.08 50.25 64.83 50.09C65.1 50.32 65.26 50.66 65.25 51C65.25 51.7 64.69 52.26 64 52.26C63.31 52.26 62.75 51.7 62.75 51ZM61 47C58.23 46.96 55.5 47.65 53.07 49L53 50C53 51.23 53.29 52.44 53.84 53.54C58.5861 52.8185 63.4139 52.8185 68.16 53.54C68.71 52.44 69 51.23 69 50L68.93 49C66.5072 47.6511 63.7728 46.9614 61 47ZM61 40C62.3132 40 63.6136 40.2587 64.8268 40.7612C66.0401 41.2638 67.1425 42.0003 68.0711 42.9289C68.9997 43.8575 69.7362 44.9599 70.2388 46.1732C70.7413 47.3864 71 48.6868 71 50C71 52.6522 69.9464 55.1957 68.0711 57.0711C66.1957 58.9464 63.6522 60 61 60C59.6868 60 58.3864 59.7413 57.1732 59.2388C55.9599 58.7362 54.8575 57.9997 53.9289 57.0711C52.0536 55.1957 51 52.6522 51 50C51 47.3478 52.0536 44.8043 53.9289 42.9289C55.8043 41.0536 58.3478 40 61 40Z" fill="#C92C60"/>
<path d="M56.75 51C56.74 50.65 56.9 50.31 57.17 50.08C57.92 50.24 58.62 50.55 59.25 51C59.25 51.68 58.69 52.24 58 52.24C57.31 52.24 56.76 51.69 56.75 51ZM62.75 51C63.38 50.56 64.08 50.25 64.83 50.09C65.1 50.32 65.26 50.66 65.25 51C65.25 51.7 64.69 52.26 64 52.26C63.31 52.26 62.75 51.7 62.75 51ZM61 47C58.23 46.96 55.5 47.65 53.07 49L53 50C53 51.23 53.29 52.44 53.84 53.54C58.5861 52.8185 63.4139 52.8185 68.16 53.54C68.71 52.44 69 51.23 69 50L68.93 49C66.5072 47.6511 63.7728 46.9614 61 47ZM61 40C62.3132 40 63.6136 40.2587 64.8268 40.7612C66.0401 41.2638 67.1425 42.0003 68.0711 42.9289C68.9997 43.8575 69.7362 44.9599 70.2388 46.1732C70.7413 47.3864 71 48.6868 71 50C71 52.6522 69.9464 55.1957 68.0711 57.0711C66.1957 58.9464 63.6522 60 61 60C59.6868 60 58.3864 59.7413 57.1732 59.2388C55.9599 58.7362 54.8575 57.9997 53.9289 57.0711C52.0536 55.1957 51 52.6522 51 50C51 47.3478 52.0536 44.8043 53.9289 42.9289C55.8043 41.0536 58.3478 40 61 40Z" fill="url(#paint1_linear)"/>
<defs>
<filter id="filter0_d" x="72.24" y="40.68" width="137.765" height="29.49" filterUnits="userSpaceOnUse" color-interpolation-filters="sRGB">
<feFlood flood-opacity="0" result="BackgroundImageFix"/>
<feColorMatrix in="SourceAlpha" type="matrix" values="0 0 0 0 0 0 0 0 0 0 0 0 0 0 0 0 0 0 127 0"/>
<feOffset dy="4"/>
<feGaussianBlur stdDeviation="2"/>
<feColorMatrix type="matrix" values="0 0 0 0 0 0 0 0 0 0 0 0 0 0 0 0 0 0 0.25 0"/>
<feBlend mode="normal" in2="BackgroundImageFix" result="effect1_dropShadow"/>
<feBlend mode="normal" in="SourceGraphic" in2="effect1_dropShadow" result="shape"/>
</filter>
<linearGradient id="paint0_linear" x1="149" y1="38" x2="149" y2="62" gradientUnits="userSpaceOnUse">
<stop stop-color="#C92C60"/>
<stop offset="1" stop-color="white" stop-opacity="0"/>
</linearGradient>
<linearGradient id="paint1_linear" x1="61" y1="40" x2="61" y2="60" gradientUnits="userSpaceOnUse">
<stop/>
<stop offset="1" stop-color="white" stop-opacity="0"/>
</linearGradient>
</defs>
</svg>
